<svg version="1.1" id="Layer_1" xmlns="http://www.w3.org/2000/svg" xmlns:xlink="http://www.w3.org/1999/xlink" x="0px" y="0px"
	 width="400px" height="93px" viewBox="0 0 400 93" enable-background="new 0 0 400 93" xml:space="preserve">
<g>
	<g>
		<path fill="#fff" d="M0,0h34.9c0,0,28.7-2.4,28.7,21.8c0,24.2-24.7,22.4-29.4,22.4L0,44.2V33h35.4c0,0,15.6,1.1,15.6-11.3
			C51,9.8,40.5,11,35,11c-5.4,0-35,0-35,0L0,0z"/>
		<path fill="#fff" d="M58.9,52C64.2,55,69,61,69,70.3c0,24.2-24.7,22.9-29.4,22.9L0,93.3V82.6l40.6,0c0,0,15.7,0.1,15.9-12.2
			C56.5,61.9,51.1,55,45.9,52H58.9z"/>
	</g>
	<path fill="#fff" d="M100,52h15c0,7,0,16.6,0,21.3c0,6.9,4.1,9.7,8.2,9.7c4.1,0,37,0,40.7,0l0.1,10c-3.9,0-44,0-49.1,0
		c-5.1,0-14.8-2.9-14.8-16.7C100,61.1,100,52,100,52z"/>
	<path fill="#fff" d="M164,33.4c-3.7,0-38,0-42.1,0c-4.1,0-7-0.4-7-5.1c0-0.7,0-11.4,0.1-12.2c0-5,2.6-5.2,6.7-5.2
		c4.1,0,38.6,0,42.3,0l0-11c-3.9,0-48,0-48,0S100-1,100,16c0,5.9,0,11.7,0,11.9c0,15.3,11.4,16.1,16.5,16.1c5.1,0,43.5,0,47.4,0
		L164,33.4z"/>
	<path fill="#fff" d="M270.6,0c-2.2,3-23.1,27.4-25.7,30c-4.4,4.3-12.3,3.4-18.7,3.4c-6.5,0-7.6-4.9-7.6-8.3c0-3.3,0-22.2,0-25.2
		h-14.8c0,3,0.1,29.3,0.1,33.4c0,3.3,1.5,10.7,14.7,10.7c2.5,0,25.2,0,25.4,0c3.3,0,8.2-2,13.9-8.7c1.7-2,25.8-31.4,29.8-35.4H270.6
		z"/>
	<path fill="#fff" d="M256,58.7c-3.1-3.4-5.9-6.7-15.7-6.7c0,0-6.6,0-21.7,0c-10.8,0-14.6,8.1-14.6,12.2c0,4.1,0,25.9,0,29.1
		l14.7,0c0-3,0-21.7,0-25.1c0-3.3,1-5.2,7.5-5.2c6.4,0,5.4,0,6.1,0c6.1,0,9.5,0.1,12.7,3.2c2.6,2.6,24.3,24.8,26.7,26.8h17
		C284.5,89,257.8,60.6,256,58.7z"/>
	<path fill="#fff" d="M380.2,0c-2.2,3-23.1,27.4-25.7,30c-4.4,4.3-12.3,3.4-18.7,3.4c-6.5,0-7.6-5-7.6-8.3c0-3.3,0-22.2,0-25.2
		h-14.8c0,3,0.1,29.3,0.1,33.4c0,3.3,1.5,10.8,14.7,10.8c2.5,0,25.2,0,25.4,0c3.3,0,8.2-2.1,13.9-8.7c1.7-2,25.8-31.4,29.8-35.4
		H380.2z"/>
	<path fill="#fff" d="M365.7,58.7c-3.1-3.4-5.9-6.7-15.7-6.7c0,0-6.6,0-21.7,0c-10.8,0-15.2,8.1-15.2,12.2c0,4.1,0,25.9,0,29.1
		l15,0c0-3,0.2-21.7,0.2-25.1c0-3.3,1-5.2,7.5-5.2c6.4,0,5.4,0,6.1,0c6.1,0,9.5,0.1,12.7,3.2c2.6,2.6,24.3,24.8,26.8,26.8h17
		C394.2,89,367.4,60.6,365.7,58.7z"/>
</g>
</svg>
