<?xml version="1.0" encoding="UTF-8" standalone="no"?>
<svg xmlns:rdf="http://www.w3.org/1999/02/22-rdf-syntax-ns#" xmlns="http://www.w3.org/2000/svg" version="1.1" xmlns:cc="http://creativecommons.org/ns#" xmlns:dc="http://purl.org/dc/elements/1.1/" viewBox="0 0 16 15.999"> <g transform="translate(0,-1036.3625)">
     <path d="m15.741,1049.9-0.0667-0.067,0,0-3.8685-3.8828c0.53359-0.9371,0.86708-2.0082,0.86708-3.1463,0-3.481-2.8013-6.3596-6.2697-6.4265h-0.0667c-3.4683,0.0001-6.3364,2.8117-6.3364,6.2927s2.8013,6.3597,6.2697,6.4266h0.0667c1.1339,0,2.2678-0.3347,3.2015-0.8703l3.8685,3.8827,0.0667,0.067c0.26679,0.2677,0.73368,0.2677,1.0672,0l1.2673-1.272c0.26679-0.2678,0.26679-0.7364-0.0667-1.0041zm-6.0696-3.8158c-0.86708,0.8703-2.0677,1.4058-3.3349,1.4058-2.6012,0-4.7356-2.1421-4.6689-4.7529,0-2.6108,2.1344-4.6861,4.7356-4.6861,1.2673,0,2.4678,0.5356,3.3349,1.4059,0.86708,0.8702,1.4007,2.0751,1.334,3.3471,0,1.205-0.53359,2.41-1.4007,3.2802z" fill-rule="evenodd" clip-rule="evenodd" fill="#c6c8ca" />
 </g>
</svg>
